{"asset":{"version":"2.0","generator":"babylon.js glTF exporter for 3dsmax 2021 v20200701.2"},"scene":0,"scenes":[{"nodes":[0,1,2,3,4]}],"nodes":[{"mesh":0,"name":"Box001"},{"name":"VRaySun001.Target"},{"translation":[4.404955,5.26635,5.24182653],"rotation":[0.494462371,0.23986052,-0.1441225,0.822923243],"scale":[1.0,1.00000036,1.00000012],"name":"VRayCam001.Target"},{"name":"Default light"},{"camera":0,"translation":[8.741642,9.557919,12.0490665],"rotation":[-0.232257068,0.27151674,0.06769673,0.9315323],"scale":[0.9999999,1.00000036,1.0],"name":"VRayCam001"}],"cameras":[{"perspective":{"yfov":0.4579393,"zfar":10000.0,"znear":0.1},"type":"perspective","name":"VRayCam001"}],"meshes":[{"primitives":[{"attributes":{"POSITION":1,"NORMAL":2,"TEXCOORD_0":3},"indices":0,"material":0}],"name":"Box001"}],"accessors":[{"bufferView":0,"componentType":5123,"count":36,"type":"SCALAR","name":"accessorIndices"},{"bufferView":1,"componentType":5126,"count":36,"max":[1.0,2.0,1.0],"min":[-1.0,0.0,-1.0],"type":"VEC3","name":"accessorPositions"},{"bufferView":1,"byteOffset":432,"componentType":5126,"count":36,"type":"VEC3","name":"accessorNormals"},{"bufferView":2,"componentType":5126,"count":36,"type":"VEC2","name":"accessorUVs"}],"bufferViews":[{"buffer":0,"byteLength":72,"name":"bufferViewScalar"},{"buffer":0,"byteOffset":72,"byteLength":864,"byteStride":12,"name":"bufferViewFloatVec3"},{"buffer":0,"byteOffset":936,"byteLength":288,"byteStride":8,"name":"bufferViewFloatVec2"}],"buffers":[{"uri":"box.bin","byteLength":1224}],"materials":[{"pbrMetallicRoughness":{"baseColorTexture":{"index":0},"metallicFactor":0.0,"roughnessFactor":0.450053632},"emissiveTexture":{"index":0},"emissiveFactor":[1.0,1.0,1.0],"name":"baked_sivodcfa_Cracked_Asphalt_2x2_M"}],"textures":[{"sampler":0,"source":0,"name":"Box001VRayCompleteMap.png"}],"images":[{"uri":"./Box001VRayCompleteMap.png"}],"samplers":[{"magFilter":9729,"minFilter":9987}]}