{"asset":{"version":"2.0","generator":"babylon.js glTF exporter for 3dsmax 2021 v20200701.2"},"extensionsUsed":["KHR_texture_transform"],"extensionsRequired":["KHR_texture_transform"],"scene":0,"scenes":[{"nodes":[0,3,4,5]}],"nodes":[{"children":[1,2],"translation":[-0.0862025842,0.152,1.58129585],"name":"Group001"},{"mesh":0,"translation":[1.21116637E-08,-0.226359487,-1.18316209],"name":"Booster"},{"mesh":1,"translation":[1.21116637E-08,-0.226359487,-1.18316209],"name":"Box001"},{"translation":[-0.256878763,-0.0351184458,1.433915],"name":"PhysCamera001.Target"},{"name":"Default light"},{"camera":0,"translation":[5.200175,1.95320058,-1.2396524],"rotation":[0.08331835,-0.8379336,-0.133600533,-0.522567],"scale":[1.0,1.0,0.99999994],"name":"PhysCamera001"}],"cameras":[{"perspective":{"yfov":0.7668961,"zfar":10000.0,"znear":0.1},"type":"perspective","name":"PhysCamera001"}],"meshes":[{"primitives":[{"attributes":{"POSITION":1,"NORMAL":2,"TEXCOORD_0":3},"indices":0,"material":0}],"name":"Booster"},{"primitives":[{"attributes":{"POSITION":5,"NORMAL":6,"TEXCOORD_0":7},"indices":4,"material":1}],"name":"Box001"}],"accessors":[{"bufferView":0,"componentType":5123,"count":24,"type":"SCALAR","name":"accessorIndices"},{"bufferView":1,"componentType":5126,"count":24,"max":[0.38563934,0.258738458,3.119265],"min":[-0.38563934,0.127487227,2.38807273],"type":"VEC3","name":"accessorPositions"},{"bufferView":1,"byteOffset":288,"componentType":5126,"count":24,"type":"VEC3","name":"accessorNormals"},{"bufferView":2,"componentType":5126,"count":24,"type":"VEC2","name":"accessorUVs"},{"bufferView":0,"byteOffset":48,"componentType":5123,"count":138,"type":"SCALAR","name":"accessorIndices"},{"bufferView":1,"byteOffset":576,"componentType":5126,"count":138,"max":[0.951509356,0.452718973,2.50297666],"min":[-0.951509356,0.0,-0.752940536],"type":"VEC3","name":"accessorPositions"},{"bufferView":1,"byteOffset":2232,"componentType":5126,"count":138,"type":"VEC3","name":"accessorNormals"},{"bufferView":2,"byteOffset":192,"componentType":5126,"count":138,"type":"VEC2","name":"accessorUVs"},{"bufferView":3,"componentType":5126,"count":13,"max":[3.33333325],"min":[0.0],"type":"SCALAR","name":"accessorAnimationInput"},{"bufferView":4,"componentType":5126,"count":13,"type":"VEC3","name":"accessorAnimationPositions"},{"bufferView":3,"byteOffset":52,"componentType":5126,"count":13,"max":[3.33333325],"min":[0.0],"type":"SCALAR","name":"accessorAnimationInput"},{"bufferView":5,"componentType":5126,"count":13,"type":"VEC4","name":"accessorAnimationRotations"}],"bufferViews":[{"buffer":0,"byteLength":324,"name":"bufferViewScalar"},{"buffer":0,"byteOffset":324,"byteLength":3888,"byteStride":12,"name":"bufferViewFloatVec3"},{"buffer":0,"byteOffset":4212,"byteLength":1296,"byteStride":8,"name":"bufferViewFloatVec2"},{"buffer":0,"byteOffset":5508,"byteLength":104,"name":"bufferViewAnimationFloatScalar"},{"buffer":0,"byteOffset":5612,"byteLength":156,"name":"bufferViewAnimationFloatVec3"},{"buffer":0,"byteOffset":5768,"byteLength":208,"name":"bufferViewAnimationFloatVec4"}],"buffers":[{"uri":"Hover.bin","byteLength":5976}],"materials":[{"pbrMetallicRoughness":{"baseColorFactor":[0.5,0.5,0.5,1.0],"metallicFactor":0.0,"roughnessFactor":0.0},"name":"Material #30"},{"pbrMetallicRoughness":{"baseColorTexture":{"index":0,"extensions":{"KHR_texture_transform":{"offset":[0.0,0.0],"scale":[1.0,1.0],"texCoord":0}}},"metallicFactor":0.0,"roughnessFactor":0.0},"name":"Material #31"}],"textures":[{"sampler":0,"source":0,"name":"Test Car Unwrap 2.png"}],"images":[{"uri":"./Test Car Unwrap 2.png"}],"samplers":[{"magFilter":9729,"minFilter":9987}],"animations":[{"channels":[{"sampler":0,"target":{"node":0,"path":"translation"}},{"sampler":1,"target":{"node":0,"path":"rotation"}}],"samplers":[{"input":8,"output":9},{"input":10,"output":11}],"name":"All Animations"}]}